<svg class="icon-arrow-right" width="30" height="16" viewBox="0 0 30 16" fill="rgba(55,55,55,.5)" xmlns="http://www.w3.org/2000/svg">
    <path fill-rule="evenodd" clip-rule="evenodd" d="M1.1786 7.0091C0.513007 7.07531 0 7.49371 0 7.99997C0 8.55225 0.610521 8.99997 1.36364 8.99997L27.0319 8.99997L22.0047 14.0813L21.9253 14.1743C21.687 14.4988 21.7124 14.9602 22.0023 15.2556C22.3212 15.5805 22.8392 15.5816 23.1594 15.258L29.7594 8.58775L29.839 8.49451C30.0779 8.16894 30.0513 7.70605 29.7593 7.41103L23.1593 0.741901L23.0674 0.661707C22.7466 0.421223 22.2921 0.449015 22.0023 0.744431C21.6834 1.06939 21.6845 1.59512 22.0047 1.91868L27.0334 6.99997L1.36364 6.99997L1.1786 7.0091Z" />
</svg>