<svg width="32" height="32" viewBox="0 0 32 32" fill="none" xmlns="http://www.w3.org/2000/svg">
<path d="M16 32C7.17725 32 0 24.8228 0 16C0 7.17725 7.17725 0 16 0C24.8228 0 32 7.17725 32 16C32 24.8228 24.8228 32 16 32ZM16 2C8.28003 2 2 8.28003 2 16C2 23.72 8.28003 30 16 30C23.72 30 30 23.72 30 16C30 8.28003 23.72 2 16 2Z" fill="#184FA0"/>
<path d="M14.5 21.3333C14.2439 21.3333 13.988 21.2361 13.7932 21.04L9.45996 16.7068C9.06934 16.3159 9.06934 15.6826 9.45996 15.292C9.85059 14.9014 10.4839 14.9014 10.8748 15.292L14.5012 18.9187L22.4614 10.9587C22.8521 10.5681 23.4854 10.5681 23.876 10.9587C24.2666 11.3494 24.2666 11.9827 23.876 12.3733L15.2092 21.04C15.012 21.2361 14.7561 21.3333 14.5 21.3333Z" fill="#DF8D41"/>
</svg>
