<svg width="22" height="34" viewBox="0 0 22 34" fill="none" xmlns="http://www.w3.org/2000/svg">
<path d="M21.0512 19.5033C21.502 18.9456 21.7183 18.3478 21.6907 17.7322C21.663 17.0541 21.3502 16.5232 21.0926 16.1975C21.3916 15.4748 21.5066 14.3372 20.5083 13.4539C19.7768 12.8071 18.5346 12.5171 16.814 12.5974C15.6041 12.6509 14.5919 12.8695 14.5505 12.8784H14.5459C14.3159 12.9186 14.0721 12.9677 13.8236 13.0212C13.8052 12.7357 13.8559 12.0263 14.3987 10.4292C15.0428 8.52879 15.006 7.07445 14.2791 6.10191C13.5154 5.0803 12.2963 5 11.9374 5C11.5924 5 11.2749 5.1383 11.0495 5.39258C10.5388 5.96807 10.5986 7.02983 10.663 7.52056C10.0558 9.09982 8.35355 12.9721 6.91357 14.0473C6.88597 14.0651 6.86296 14.0874 6.83996 14.1097C6.41671 14.5424 6.13147 15.0109 5.93824 15.4213C5.66681 15.2785 5.35857 15.1982 5.02733 15.1982H2.22097C1.16284 15.1982 0.307129 16.0325 0.307129 17.0541V24.3035C0.307129 25.3296 1.16744 26.1593 2.22097 26.1593H5.02733C5.43678 26.1593 5.81863 26.0344 6.13147 25.8203L7.21261 25.9452C7.37823 25.9675 10.3226 26.3289 13.3452 26.2709C13.8927 26.311 14.4079 26.3333 14.8864 26.3333C15.7099 26.3333 16.4276 26.2709 17.0257 26.146C18.4334 25.856 19.395 25.276 19.8826 24.424C20.2553 23.7726 20.2553 23.1257 20.1955 22.7153C21.111 21.9123 21.272 21.0245 21.2398 20.4C21.2214 20.0386 21.1386 19.7308 21.0512 19.5033ZM2.22097 24.9548C1.84833 24.9548 1.54929 24.6604 1.54929 24.3035V17.0496C1.54929 16.6883 1.85293 16.3983 2.22097 16.3983H5.02733C5.39998 16.3983 5.69901 16.6927 5.69901 17.0496V24.299C5.69901 24.6604 5.39538 24.9504 5.02733 24.9504H2.22097V24.9548ZM19.8734 18.9813C19.6802 19.1776 19.6434 19.4765 19.7906 19.7085C19.7906 19.713 19.9792 20.0252 20.0022 20.4535C20.0344 21.0379 19.7446 21.5554 19.1373 21.9971C18.9211 22.1577 18.8337 22.4343 18.9257 22.6841C18.9257 22.6886 19.1235 23.2774 18.8015 23.8351C18.4932 24.3704 17.8078 24.7541 16.768 24.9682C15.9353 25.1422 14.8036 25.1734 13.4142 25.0664C13.3958 25.0664 13.3728 25.0664 13.3498 25.0664C10.3916 25.1288 7.40123 24.7541 7.36903 24.7496H7.36443L6.89977 24.6961C6.92737 24.5712 6.94117 24.4373 6.94117 24.3035V17.0496C6.94117 16.8578 6.90897 16.6704 6.85376 16.4964C6.93657 16.1975 7.1666 15.5328 7.70947 14.9663C9.77513 13.3781 11.7948 8.02021 11.8822 7.78823C11.919 7.69455 11.9282 7.59194 11.9098 7.48933C11.8316 6.98968 11.8592 6.3785 11.9696 6.19559C12.2134 6.20006 12.8713 6.26697 13.267 6.79785C13.7362 7.42688 13.7178 8.55109 13.2118 10.0411C12.4389 12.3119 12.3745 13.5075 12.9863 14.0339C13.29 14.2971 13.6948 14.3105 13.9893 14.2079C14.2699 14.1454 14.5367 14.0919 14.7898 14.0517C14.8082 14.0473 14.8312 14.0428 14.8496 14.0383C16.262 13.7394 18.7923 13.5565 19.671 14.3328C20.4163 14.993 19.8872 15.8674 19.8274 15.9611C19.6572 16.2109 19.7078 16.5366 19.9378 16.7373C19.9424 16.7418 20.4255 17.1835 20.4485 17.7768C20.4669 18.1738 20.2737 18.5798 19.8734 18.9813Z" fill="#1950A0"/>
</svg>
