<svg width="36" height="36" viewBox="0 0 36 36" fill="none" xmlns="http://www.w3.org/2000/svg"><path fill-rule="evenodd" clip-rule="evenodd" d="M18 36C27.9412 36 36 27.9404 36 18C36 8.05957 27.9412 0 18 0C8.05884 0 0 8.05957 0 18C0 27.9404 8.05884 36 18 36ZM12.3431 22.3433C10.8428 23.8433 9.99994 25.8779 9.99994 28.0005H26.0001C26.0001 25.8779 25.1572 23.8433 23.6569 22.3433C22.1565 20.8433 20.1216 19.9995 18 19.9995C15.8784 19.9995 13.8435 20.8433 12.3431 22.3433ZM12 13.0005C12 16.3154 14.6851 19.0005 18 19.0005C21.3149 19.0005 24 16.3154 24 13.0005C24 9.68555 21.3149 7.00049 18 7.00049C14.6851 7.00049 12 9.68555 12 13.0005Z" fill="#FF741D"/></svg>