<svg width="32" height="32" viewBox="0 0 32 32" fill="none" xmlns="http://www.w3.org/2000/svg"><path d="M16.004 0H15.996C7.174 0 0 7.176 0 16C0 19.5 1.128 22.744 3.046 25.378L1.052 31.322L7.202 29.356C9.732 31.032 12.75 32 16.004 32C24.826 32 32 24.822 32 16C32 7.178 24.826 0 16.004 0Z" fill="#4CAF50"/><path d="M21.8217 20.1212C21.5804 20.8025 20.6229 21.3675 19.8592 21.5325C19.3367 21.6437 18.6542 21.7325 16.3567 20.78C13.4179 19.5625 11.5254 16.5762 11.3779 16.3825C11.2367 16.1887 10.1904 14.8012 10.1904 13.3662C10.1904 11.9312 10.9192 11.2325 11.2129 10.9325C11.4542 10.6862 11.8529 10.5737 12.2354 10.5737C12.3592 10.5737 12.4704 10.58 12.5704 10.585C12.8642 10.5975 13.0117 10.615 13.2054 11.0787C13.4467 11.66 14.0342 13.095 14.1042 13.2425C14.1754 13.39 14.2467 13.59 14.1467 13.7837C14.0529 13.9837 13.9704 14.0725 13.8229 14.2425C13.6754 14.4125 13.5354 14.5425 13.3879 14.725C13.2529 14.8837 13.1004 15.0537 13.2704 15.3475C13.4404 15.635 14.0279 16.5937 14.8929 17.3637C16.0092 18.3575 16.9142 18.675 17.2379 18.81C17.4792 18.91 17.7667 18.8862 17.9429 18.6987C18.1667 18.4575 18.4429 18.0575 18.7242 17.6637C18.9242 17.3812 19.1767 17.3462 19.4417 17.4462C19.7117 17.54 21.1404 18.2462 21.4342 18.3925C21.7279 18.54 21.9217 18.61 21.9929 18.7337C22.0629 18.8575 22.0629 19.4387 21.8217 20.1212Z" fill="#FAFAFA"/></svg>