<svg width="207" height="207" viewBox="0 0 207 207" fill="none" xmlns="http://www.w3.org/2000/svg">
<path d="M206.467 103.883C206.467 160.832 160.3 207 103.348 207C46.4004 207 0.233643 160.832 0.233643 103.883C0.233643 46.932 46.4004 0.765381 103.348 0.765381C160.3 0.765381 206.467 46.932 206.467 103.883Z" fill="#29538B"/>
<path d="M170.86 100.777C197.299 149.667 159.775 165.459 98.8923 165.459C29.543 165.459 16.747 145.836 34.3497 100.231C49.455 61.0947 76.2337 56.288 100.264 56.288C124.294 56.288 151.86 65.644 170.86 100.777Z" fill="#E1DDD1"/>
<path d="M165.916 135.591C159.651 145.984 143.043 148.808 123.475 150.867C113.082 144.604 111.012 107.628 113.572 95.7681C116.322 83.0667 128.91 73.3387 145.674 86.5627C155.202 94.0774 172.18 125.199 165.916 135.591Z" fill="#B8B4AA"/>
<path d="M40.5819 137.307C46.8446 147.7 72.2073 150.697 84.7353 152.069C95.1313 145.807 98.8713 110.015 95.5513 93.88C93.1086 81.9947 75.1259 69.1614 58.9912 86.8427C42.8552 104.523 34.3166 126.915 40.5819 137.307Z" fill="#B8B4AA"/>
<path d="M124.699 106.129C124.699 112.255 129.666 117.217 135.789 117.217C141.91 117.217 146.874 112.255 146.874 106.129C146.874 100.007 141.91 95.0426 135.789 95.0426C129.666 95.0426 124.699 100.007 124.699 106.129Z" fill="white"/>
<path d="M130.177 106.224C130.177 109.323 132.686 111.835 135.788 111.835C138.887 111.835 141.399 109.323 141.399 106.224C141.399 103.124 138.887 100.612 135.788 100.612C132.686 100.612 130.177 103.124 130.177 106.224Z" fill="#36383E"/>
<path d="M134.523 101.815C134.523 103.443 135.842 104.763 137.47 104.763C139.098 104.763 140.418 103.443 140.418 101.815C140.418 100.187 139.098 98.8693 137.47 98.8693C135.842 98.8693 134.523 100.187 134.523 101.815Z" fill="white"/>
<path d="M81.8538 103.323C81.8538 109.448 76.8911 114.412 70.7671 114.412C64.6444 114.412 59.6804 109.448 59.6804 103.323C59.6804 97.2028 64.6444 92.2348 70.7671 92.2348C76.8911 92.2348 81.8538 97.2028 81.8538 103.323Z" fill="white"/>
<path d="M76.3793 103.419C76.3793 106.517 73.8673 109.029 70.7673 109.029C67.6699 109.029 65.1553 106.517 65.1553 103.419C65.1553 100.317 67.6699 97.8053 70.7673 97.8053C73.8673 97.8053 76.3793 100.317 76.3793 103.419Z" fill="#36383E"/>
<path d="M72.0324 99.0094C72.0324 100.637 70.7123 101.956 69.083 101.956C67.4577 101.956 66.1377 100.637 66.1377 99.0094C66.1377 97.38 67.4577 96.0614 69.083 96.0614C70.7123 96.0614 72.0324 97.38 72.0324 99.0094Z" fill="white"/>
<path d="M139.343 139.025C139.343 150.4 118.004 159.621 99.5671 159.621C81.1284 159.621 66.1831 150.4 66.1831 139.025C66.1831 127.648 81.1284 118.425 99.5671 118.425C118.004 118.425 139.343 127.648 139.343 139.025Z" fill="white"/>
<path d="M116.614 137.654C116.614 142.968 110.41 149.582 102.762 149.582C95.1125 149.582 88.9126 142.968 88.9126 137.654C88.9126 132.342 95.1125 128.035 102.762 128.035C110.41 128.035 116.614 132.342 116.614 137.654Z" fill="#36383E"/>
<path d="M111.785 134.773C111.461 136.049 109.57 136.668 107.562 136.157C105.555 135.647 104.19 134.201 104.513 132.927C104.838 131.651 106.729 131.033 108.735 131.543C110.743 132.053 112.109 133.499 111.785 134.773Z" fill="white"/>
<path d="M48.0617 43.0135C37.991 47.8748 48.4283 80.0881 48.4283 80.0881L82.5417 59.9681C82.5417 59.9681 58.1337 38.1508 48.0617 43.0135Z" fill="#E1DDD1"/>
<path d="M52.1711 47.7321C45.4045 50.9988 52.4205 72.6428 52.4205 72.6428L75.3418 59.1241C75.3418 59.1241 58.9391 44.4641 52.1711 47.7321Z" fill="#B8B4AA"/>
<path d="M158.494 43.0135C168.563 47.8748 158.124 80.0881 158.124 80.0881L124.014 59.9681C124.014 59.9681 148.423 38.1508 158.494 43.0135Z" fill="#E1DDD1"/>
<path d="M154.382 47.7321C161.15 50.9988 154.136 72.6428 154.136 72.6428L131.215 59.1241C131.215 59.1241 147.618 44.4641 154.382 47.7321Z" fill="#B8B4AA"/>
</svg>
