<svg width="207" height="207" viewBox="0 0 207 207" fill="none" xmlns="http://www.w3.org/2000/svg">
<path d="M206.934 103.119C206.934 160.066 160.767 206.235 103.815 206.235C46.8672 206.235 0.700439 160.066 0.700439 103.119C0.700439 46.1666 46.8672 -3.05176e-05 103.815 -3.05176e-05C160.767 -3.05176e-05 206.934 46.1666 206.934 103.119Z" fill="#8B2929"/>
<path d="M77.7033 49.6573C77.7033 49.5826 76.7193 48.256 75.286 46.9133C72.3687 44.184 66.846 40.1493 58.8647 38.9653C46.482 37.1079 26.2087 48.5826 23.45 85.7573C20.702 122.928 35.7007 126.596 47.402 126.596C57.1047 126.596 68.3074 119.744 76.8434 110.009C82.314 89.6399 77.7033 49.6786 77.7033 49.6573Z" fill="#CBC6BA"/>
<path d="M130.759 50.0974C130.759 50.0227 131.742 48.6973 133.175 47.3533C136.09 44.624 141.615 40.5893 149.594 39.404C161.979 37.5467 181.409 48.1787 184.167 85.3534C186.918 122.523 172.762 127.037 161.061 127.037C151.359 127.037 140.157 120.184 131.618 110.449C126.147 90.0787 130.758 50.1174 130.759 50.0974Z" fill="#CBC6BA"/>
<path d="M151.845 158.553C151.237 156.105 156.137 155.641 157.125 147.847C158.119 140.037 151.849 147.543 151.849 147.543C151.849 147.543 147.258 152.823 128.906 151.666C111.998 150.612 116.687 130.388 116.749 123.487C116.766 121.512 117.421 119.748 118.021 119.505C118.622 119.269 120.285 120.159 121.314 121.832C123.869 125.957 126.142 132.661 127.385 136.721C127.966 138.597 129.37 138.86 130.061 137.015C132.314 130.883 130.665 122.497 129.081 117.024C128.542 115.135 129.742 113.185 130.386 111.576C147.091 69.7692 130.857 49.8599 130.857 50.0132C130.851 50.1572 129.714 49.1532 128.19 47.9066C121.517 42.4452 113.123 39.1946 104.017 39.1946C95.022 39.1946 86.742 42.3599 80.1033 47.6812C78.9633 48.5959 78.0447 49.4066 77.646 49.7346C60.426 81.1466 76.026 109.964 76.59 110.515C77.1647 111.069 77.594 111.496 77.542 111.459C77.498 111.421 76.866 112.875 76.254 114.747C74.5753 119.915 71.9967 129.959 74.582 137.005C75.2633 138.852 76.6793 138.601 77.2526 136.721C78.63 132.236 81.2726 124.504 84.142 120.62C85.306 119.035 86.6766 119.933 86.614 121.899C86.2473 133.86 84.6993 144.82 102.459 158.94C117.806 171.14 130.449 166.927 144.942 166.03C146.91 165.909 149.587 165.315 151.529 165.664C152.719 165.876 154.241 166.002 156.131 165.901C161.633 165.588 152.459 160.999 151.845 158.553Z" fill="#E1DDD1"/>
<path d="M81.5688 107.432L76.5901 110.715C73.0741 123.321 73.5074 132.377 73.5074 132.377C77.0501 148.439 78.1568 135.56 79.8714 130.515C81.5821 125.468 86.2474 121.161 86.2474 121.161L81.5688 107.432Z" fill="#F9F3E6"/>
<path d="M128.481 110.715L122.643 107.432L117.161 121.161C117.161 121.161 122.626 125.468 124.637 130.515C126.645 135.56 127.938 148.439 132.091 132.377C132.091 132.377 132.603 123.321 128.481 110.715Z" fill="#F9F3E6"/>
<path d="M95.4126 78.5532C95.4126 81.5919 92.9499 84.0559 89.9085 84.0559C86.8699 84.0559 84.4072 81.5919 84.4072 78.5532C84.4072 75.5132 86.8699 73.0519 89.9085 73.0519C92.9499 73.0519 95.4126 75.5132 95.4126 78.5532Z" fill="#2D2E33"/>
<path d="M90.2926 74.1187C90.2926 76.0613 88.7193 77.636 86.7767 77.636C84.8353 77.636 83.262 76.0613 83.262 74.1187C83.262 72.1787 84.8353 70.6053 86.7767 70.6053C88.7193 70.6053 90.2926 72.1787 90.2926 74.1187Z" fill="white"/>
<path d="M113.598 78.5532C113.598 81.5919 116.062 84.0559 119.099 84.0559C122.141 84.0559 124.603 81.5919 124.603 78.5532C124.603 75.5132 122.141 73.0519 119.099 73.0519C116.062 73.0519 113.598 75.5132 113.598 78.5532Z" fill="#2D2E33"/>
<path d="M118.719 74.1187C118.719 76.0613 120.291 77.636 122.235 77.636C124.175 77.636 125.749 76.0613 125.749 74.1187C125.749 72.1787 124.175 70.604 122.235 70.604C120.291 70.604 118.719 72.1787 118.719 74.1187Z" fill="white"/>
</svg>
