<svg width="207" height="207" viewBox="0 0 207 207" fill="none" xmlns="http://www.w3.org/2000/svg">
<path d="M206.7 103.884C206.7 160.833 160.534 207 103.584 207C46.6337 207 0.467041 160.833 0.467041 103.884C0.467041 46.932 46.6337 0.76535 103.584 0.76535C160.534 0.76535 206.7 46.932 206.7 103.884Z" fill="#CFD810"/>
<path d="M169.44 127.209C169.44 145.87 154.316 160.997 135.652 160.997C116.99 160.997 101.863 145.87 101.863 127.209C101.863 108.549 116.99 93.4198 135.652 93.4198C154.316 93.4198 169.44 108.549 169.44 127.209Z" fill="#845733"/>
<path d="M105.306 127.338C105.306 146 90.1804 161.126 71.515 161.126C52.8564 161.126 37.7271 146 37.7271 127.338C37.7271 108.677 52.8564 93.5478 71.515 93.5478C90.1804 93.5478 105.306 108.677 105.306 127.338Z" fill="#845733"/>
<path d="M96.5605 154.872C96.5525 154.882 96.5418 154.901 96.5352 154.908C96.5418 154.898 96.5525 154.882 96.5551 154.868C96.5551 154.868 96.5605 154.868 96.5605 154.872Z" fill="#14191A"/>
<path d="M96.5125 154.872C96.5191 154.882 96.5298 154.901 96.5351 154.908C96.5298 154.898 96.5191 154.882 96.5151 154.868C96.5151 154.868 96.5125 154.868 96.5125 154.872Z" fill="#14191A"/>
<path d="M104.159 152.878C104.14 152.878 104.123 152.874 104.108 152.874C104.123 152.874 104.14 152.87 104.159 152.87V152.878Z" fill="#A63B1F"/>
<path d="M104.056 152.878C104.075 152.878 104.095 152.874 104.108 152.874C104.095 152.874 104.075 152.87 104.056 152.87V152.878Z" fill="#A63B1F"/>
<path d="M120.278 63.9559C120.278 76.2639 130.255 86.2439 142.567 86.2439C154.875 86.2439 164.855 76.2639 164.855 63.9559C164.855 51.6452 154.875 41.6666 142.567 41.6666C130.255 41.6666 120.278 51.6452 120.278 63.9559Z" fill="#AD4E23"/>
<path d="M129.718 63.9559C129.718 71.0519 135.468 76.8052 142.567 76.8052C149.663 76.8052 155.416 71.0519 155.416 63.9559C155.416 56.8585 149.663 51.1065 142.567 51.1065C135.468 51.1065 129.718 56.8585 129.718 63.9559Z" fill="#431916"/>
<path d="M120.278 63.9559C120.278 76.2639 130.255 86.2439 142.567 86.2439C154.875 86.2439 164.855 76.2639 164.855 63.9559C164.855 51.6452 154.875 41.6666 142.567 41.6666C130.255 41.6666 120.278 51.6452 120.278 63.9559Z" fill="#845733"/>
<path d="M129.718 63.9559C129.718 71.0519 135.468 76.8052 142.567 76.8052C149.663 76.8052 155.416 71.0519 155.416 63.9559C155.416 56.8585 149.663 51.1065 142.567 51.1065C135.468 51.1065 129.718 56.8585 129.718 63.9559Z" fill="#BE915B"/>
<path d="M104.262 51.6786V130.656C104.271 130.663 104.282 130.664 104.29 130.672L104.262 141.943V144.632H104.258L104.21 162.883" fill="#F2941C"/>
<path d="M104.254 164.942L104.331 130.672L104.254 164.942Z" fill="#F6F6C6"/>
<path d="M88.0458 63.9559C88.0458 76.2639 78.0685 86.2439 65.7565 86.2439C53.4485 86.2439 43.4685 76.2639 43.4685 63.9559C43.4685 51.6452 53.4485 41.6666 65.7565 41.6666C78.0685 41.6666 88.0458 51.6452 88.0458 63.9559Z" fill="#AD4E23"/>
<path d="M78.6056 63.9559C78.6056 71.0519 72.855 76.8052 65.7563 76.8052C58.6603 76.8052 52.907 71.0519 52.907 63.9559C52.907 56.8585 58.6603 51.1065 65.7563 51.1065C72.855 51.1065 78.6056 56.8585 78.6056 63.9559Z" fill="#431916"/>
<path d="M88.0458 63.9559C88.0458 76.2639 78.0685 86.2439 65.7565 86.2439C53.4485 86.2439 43.4685 76.2639 43.4685 63.9559C43.4685 51.6452 53.4485 41.6666 65.7565 41.6666C78.0685 41.6666 88.0458 51.6452 88.0458 63.9559Z" fill="#845733"/>
<path d="M78.6056 63.9559C78.6056 71.0519 72.855 76.8052 65.7563 76.8052C58.6603 76.8052 52.907 71.0519 52.907 63.9559C52.907 56.8585 58.6603 51.1065 65.7563 51.1065C72.855 51.1065 78.6056 56.8585 78.6056 63.9559Z" fill="#BE915B"/>
<path d="M104.062 51.6786V130.656C104.052 130.663 104.042 130.664 104.034 130.672L104.062 141.943V144.632H104.067L104.114 162.883" fill="#F2941C"/>
<path d="M159.245 108.392C159.245 78.8385 145.974 51.6785 104.193 51.6785L104.133 52.3065V51.6785C62.3486 51.6785 49.0792 78.8385 49.0792 108.392C45.9686 121.066 40.5312 120.708 43.5912 136.901C46.6512 153.093 63.9926 159.085 76.6459 159.429C76.6459 158.482 76.6459 155.765 76.6459 148.697C76.6459 140.672 89.6352 146.222 90.5139 144.296C99.6939 147.926 94.6912 142.836 96.5126 146.67C98.7819 145.408 101.359 144.632 104.133 144.632V144.352L104.193 144.632C106.965 144.632 109.542 145.408 111.811 146.67C113.633 142.836 104.283 151.497 113.465 147.866C114.343 149.793 131.679 140.672 131.679 148.697C131.679 155.765 131.679 158.482 131.679 159.429C142.537 159.429 162.427 159.596 163.446 138.94C164.333 120.981 162.355 121.066 159.245 108.392Z" fill="#845733"/>
<path d="M104.07 164.942L103.992 130.672L104.07 164.942Z" fill="#F6F6C6"/>
<path d="M117.188 99.2759C117.188 103.563 120.664 107.033 124.95 107.033C129.235 107.033 132.71 103.563 132.71 99.2759C132.71 94.9892 129.235 91.5146 124.95 91.5146C120.664 91.5146 117.188 94.9892 117.188 99.2759Z" fill="#36383E"/>
<path d="M123.2 93.1799C123.2 95.4293 125.027 97.252 127.278 97.252C129.528 97.252 131.352 95.4293 131.352 93.1799C131.352 90.9266 129.528 89.1039 127.278 89.1039C125.027 89.1039 123.2 90.9266 123.2 93.1799Z" fill="white"/>
<path d="M94.2363 99.2759C94.2363 103.563 90.7644 107.033 86.479 107.033C82.1937 107.033 78.719 103.563 78.719 99.2759C78.719 94.9892 82.1937 91.5146 86.479 91.5146C90.7644 91.5146 94.2363 94.9892 94.2363 99.2759Z" fill="#36383E"/>
<path d="M88.2243 93.1799C88.2243 95.4293 86.4003 97.252 84.1496 97.252C81.8989 97.252 80.075 95.4293 80.075 93.1799C80.075 90.9266 81.8989 89.1039 84.1496 89.1039C86.4003 89.1039 88.2243 90.9266 88.2243 93.1799Z" fill="white"/>
<path d="M122.235 129.443C117.419 127.921 113.638 126.008 104.162 130.672C94.6843 126.008 90.9043 127.921 86.0896 129.443C83.8376 130.369 76.6456 134.147 76.6456 148.697C76.6456 155.765 76.4856 160.053 76.4856 161C84.9856 164.035 88.0909 166.099 104.92 166.099C121.752 166.099 122.672 163.905 131.171 160.872C131.171 159.927 131.679 155.765 131.679 148.697C131.679 134.147 124.486 130.369 122.235 129.443Z" fill="#F3D9B4"/>
<path d="M116.815 128.169C116.815 132.757 111.508 138.472 104.96 138.472C98.4125 138.472 93.1045 132.757 93.1045 128.169C93.1045 123.58 98.4125 119.859 104.96 119.859C111.508 119.859 116.815 123.58 116.815 128.169Z" fill="#36383E"/>
<path d="M93.8005 151.119C90.8898 151.119 87.6645 149.684 84.1738 146.827C83.7111 146.445 83.6418 145.76 84.0218 145.293C84.4031 144.828 85.0898 144.761 85.5551 145.141C89.6351 148.481 93.1525 149.624 96.0031 148.541C101.684 146.38 103.366 136.213 103.38 136.109C103.478 135.519 104.034 135.112 104.627 135.208C105.222 135.304 105.627 135.859 105.532 136.456C105.459 136.921 103.623 147.971 96.7765 150.573C95.8245 150.937 94.8325 151.119 93.8005 151.119Z" fill="#36383E"/>
<path d="M114.009 152.071C113.109 152.071 112.247 151.907 111.425 151.576C104.915 148.972 103.695 136.9 103.646 136.385C103.589 135.787 104.027 135.255 104.625 135.199C105.222 135.139 105.757 135.58 105.81 136.18C106.113 139.307 107.851 147.804 112.237 149.557C114.638 150.519 117.705 149.405 121.342 146.249C121.797 145.855 122.483 145.904 122.875 146.356C123.27 146.811 123.222 147.501 122.767 147.893C119.561 150.675 116.627 152.071 114.009 152.071Z" fill="#36383E"/>
<path d="M112.684 125.681C112.407 126.783 110.787 127.315 109.068 126.877C107.35 126.436 106.183 125.184 106.459 124.083C106.738 122.984 108.355 122.451 110.072 122.889C111.792 123.332 112.959 124.58 112.684 125.681Z" fill="white"/>
</svg>
