<svg width="208" height="207" viewBox="0 0 208 207" fill="none" xmlns="http://www.w3.org/2000/svg">
<path d="M207.168 103.119C207.168 160.068 161 206.235 104.052 206.235C47.1005 206.235 0.933838 160.068 0.933838 103.119C0.933838 46.1666 47.1005 -3.05176e-05 104.052 -3.05176e-05C161 -3.05176e-05 207.168 46.1666 207.168 103.119Z" fill="#F0B726"/>
<path d="M85.7037 66.205C91.2971 72.1917 90.6077 81.9277 84.1597 87.953C77.7157 93.9783 67.9491 94.009 62.3544 88.0237C56.7621 82.0357 55.7949 59.2717 55.7949 59.2717C55.7949 59.2717 80.1104 60.2197 85.7037 66.205Z" fill="#845733"/>
<path d="M81.4435 70.1451C84.9835 73.9305 84.5448 80.0891 80.4675 83.8998C76.3888 87.7078 70.2181 87.7305 66.6795 83.9451C63.1408 80.1585 62.5288 65.7611 62.5288 65.7611C62.5288 65.7611 77.9062 66.3598 81.4435 70.1451Z" fill="#BE915B"/>
<path d="M120.89 66.6837C115.296 72.6704 115.989 82.4077 122.437 88.4304C128.884 94.457 138.644 94.4877 144.238 88.4984C149.833 82.5157 150.802 59.7477 150.802 59.7477C150.802 59.7477 126.486 60.6944 120.89 66.6837Z" fill="#845733"/>
<path d="M125.152 70.6239C121.612 74.4092 122.049 80.5678 126.128 84.3772C130.205 88.1878 136.377 88.2065 139.914 84.4199C143.453 80.6358 144.066 66.2385 144.066 66.2385C144.066 66.2385 128.689 66.8372 125.152 70.6239Z" fill="#BE915B"/>
<path d="M98.1584 78.9812C98.0517 78.9812 97.9437 78.9745 97.8357 78.9639C96.2677 78.7892 95.1331 77.3745 95.3077 75.8039C95.3117 75.7585 95.7824 71.4585 95.7384 66.8532C95.6704 59.7305 94.4771 57.8665 94.1731 57.5092C90.5197 57.5039 79.9611 57.3585 70.6277 57.2278C63.4291 57.1265 56.6282 57.0305 54.9677 57.0305C53.7865 57.0305 52.6641 56.5305 51.8064 55.6199C48.7464 52.3639 48.9964 42.3879 49.2474 38.2492C49.3428 36.6705 50.7048 35.4679 52.2788 35.5652C53.8568 35.6585 55.0589 37.0185 54.9636 38.5945C54.6449 43.9039 55.0214 49.4852 55.7777 51.3079C58.237 51.3265 64.0731 51.4105 70.7104 51.5012C80.1651 51.6345 90.8797 51.7825 94.3344 51.7825C95.905 51.7825 97.3184 52.4345 98.4211 53.6652C102.637 58.3759 101.46 72.2865 100.998 76.4332C100.837 77.8985 99.5957 78.9812 98.1584 78.9812Z" fill="#E1DDD1"/>
<path d="M67.3743 57.2705C65.8196 57.2705 64.5449 56.0265 64.5129 54.4652L64.2743 42.5345C64.2423 40.9545 65.4996 39.6465 67.0796 39.6159C67.0996 39.6159 67.1183 39.6159 67.1396 39.6159C68.6929 39.6159 69.9676 40.8599 69.9983 42.4199L70.2369 54.3505C70.2716 55.9305 69.0129 57.2385 67.4329 57.2692C67.4143 57.2705 67.3929 57.2705 67.3743 57.2705Z" fill="#E1DDD1"/>
<path d="M81.4503 57.0305C79.9076 57.0305 78.6356 55.8052 78.5903 54.2519L78.3516 46.1412C78.3049 44.5612 79.5489 43.2425 81.1289 43.1945C82.7249 43.1478 84.029 44.3919 84.0756 45.9719L84.3129 54.0839C84.3596 55.6665 83.1156 56.9852 81.5369 57.0305C81.5076 57.0305 81.4783 57.0305 81.4503 57.0305Z" fill="#E1DDD1"/>
<path d="M109.945 79.2212C108.505 79.2212 107.266 78.1385 107.105 76.6732C106.642 72.5225 105.466 58.6145 109.681 53.9052C110.784 52.6745 112.198 52.0212 113.769 52.0212C117.224 52.0212 127.94 51.8705 137.394 51.7412C144.026 51.6465 149.864 51.5665 152.324 51.5465C153.07 49.7185 153.454 44.0465 153.137 38.8345C153.042 37.2545 154.245 35.8985 155.824 35.8038C157.404 35.7158 158.758 36.9092 158.854 38.4865C159.105 42.6279 159.357 52.6038 156.296 55.8585C155.44 56.7692 154.316 57.2705 153.133 57.2705C151.476 57.2705 144.672 57.3652 137.473 57.4665C128.142 57.5958 117.585 57.7439 113.93 57.7492C113.625 58.1079 112.428 59.9772 112.365 67.1398C112.326 71.7425 112.79 75.9972 112.796 76.0412C112.97 77.6118 111.838 79.0278 110.265 79.2012C110.16 79.2145 110.053 79.2212 109.945 79.2212Z" fill="#E1DDD1"/>
<path d="M140.728 57.509C140.71 57.509 140.69 57.509 140.67 57.5077C139.089 57.4757 137.832 56.1704 137.865 54.589L138.105 42.6584C138.136 41.0797 139.437 39.8104 141.024 39.8544C142.604 39.885 143.861 41.193 143.829 42.773L143.59 54.7024C143.557 56.2637 142.284 57.509 140.728 57.509Z" fill="#E1DDD1"/>
<path d="M126.653 57.2705C126.625 57.2705 126.596 57.2692 126.566 57.2692C124.986 57.2225 123.742 55.9039 123.789 54.3212L124.028 46.2105C124.074 44.6305 125.373 43.3812 126.973 43.4332C128.554 43.4798 129.798 44.7999 129.752 46.3799L129.512 54.4918C129.466 56.0438 128.196 57.2705 126.653 57.2705Z" fill="#E1DDD1"/>
<path d="M138.866 121.214C140.57 92.2837 124.936 70.3943 102.565 70.0077V70.0063C102.556 70.0063 102.55 70.0077 102.544 70.0077C102.536 70.0077 102.528 70.0063 102.52 70.0063V70.0077C80.1516 70.3943 64.5169 92.2837 66.2196 121.214C66.9063 132.853 46.2645 170.677 101.957 170.677C102.153 170.677 102.346 170.674 102.544 170.674C102.738 170.674 102.933 170.677 103.128 170.677C158.821 170.677 138.18 132.853 138.866 121.214Z" fill="#845733"/>
<path d="M134.657 148.336C134.657 157.997 120.446 165.828 102.918 165.828C85.3915 165.828 71.1821 157.997 71.1821 148.336C71.1821 138.673 85.3915 130.843 102.918 130.843C120.446 130.843 134.657 138.673 134.657 148.336Z" fill="#36383E"/>
<path d="M92.9276 110.957C92.9276 114.117 90.3636 116.682 87.2009 116.682C84.0396 116.682 81.4756 114.117 81.4756 110.957C81.4756 107.793 84.0396 105.229 87.2009 105.229C90.3636 105.229 92.9276 107.793 92.9276 110.957Z" fill="#36383E"/>
<path d="M87.5994 106.342C87.5994 108.361 85.9594 110 83.9408 110C81.9194 110 80.2808 108.361 80.2808 106.342C80.2808 104.321 81.9194 102.684 83.9408 102.684C85.9594 102.684 87.5994 104.321 87.5994 106.342Z" fill="white"/>
<path d="M111.854 110.954C111.854 114.117 114.418 116.682 117.581 116.682C120.742 116.682 123.306 114.117 123.306 110.954C123.306 107.793 120.742 105.229 117.581 105.229C114.418 105.229 111.854 107.793 111.854 110.954Z" fill="#36383E"/>
<path d="M117.185 106.342C117.185 108.361 118.821 110 120.84 110C122.862 110 124.5 108.361 124.5 106.342C124.5 104.321 122.862 102.684 120.84 102.684C118.821 102.684 117.185 104.321 117.185 106.342Z" fill="white"/>
</svg>
